<svg xmlns="http://www.w3.org/2000/svg" fill="none" viewBox="0 0 24 24" stroke-width="1.5" stroke="currentColor">
  <path stroke-linecap="round" stroke-linejoin="round" d="M18 18.72a9.094 9.094 0 003.741-.479 3 3 0 00-4.682-2.72m-7.5-2.963A3.003 3.003 0 006 15a3 3 0 100-6 3.003 3.003 0 00-1.055 5.72m-3.741 2.553a9.094 9.094 0 013.741-.479 3 3 0 014.682-2.72m-7.5-2.963a3.003 3.003 0 006 15a3 3 0 100-6 3.003 3.003 0 00-1.055 5.72m-3.741 2.553c.234.12.48.23.73.339m12.742 0a3 3 0 100-6 3 3 0 00-3 3c0 1.01.52 1.91.934 2.443m-9.412 2.553a9.094 9.094 0 013.741-.479 3 3 0 014.682-2.72m-7.5-2.963a3.003 3.003 0 006 15a3 3 0 100-6 3.003 3.003 0 00-1.055 5.72m-3.741 2.553c.234.12.48.23.73.339" />
</svg>